<svg xmlns="http://www.w3.org/2000/svg" viewBox="0 0 240 240" role="img" aria-label="Clwydian Academy seal — the Clwydian ridgeline read as a sweep of hair">
  <defs><clipPath id="sc"><circle cx="120" cy="120" r="110"/></clipPath></defs>
  <circle cx="120" cy="120" r="112" fill="#574463"/>
  <circle cx="120" cy="120" r="105" fill="none" stroke="#f7f5f2" stroke-width="1.6" opacity="0.28"/>
  <g clip-path="url(#sc)" fill="none" stroke-linecap="round">
    <path d="M0.0,66.0 C11.7,63.1 45.0,46.5 70.0,48.8 C95.0,51.0 129.0,71.2 150.0,79.8 C171.0,88.4 181.0,98.6 196.0,100.5 C211.0,102.4 232.7,92.8 240.0,91.3" stroke="#f7f5f2" stroke-width="9.0"/>
    <path d="M0.0,102.0 C11.7,99.5 45.0,85.0 70.0,87.0 C95.0,89.0 129.0,106.5 150.0,114.0 C171.0,121.5 181.0,130.3 196.0,132.0 C211.0,133.7 232.7,125.3 240.0,124.0" stroke="#c2a14d" stroke-width="5.5"/>
    <path d="M0.0,138.0 C11.7,135.8 45.0,122.7 70.0,124.5 C95.0,126.3 129.0,142.1 150.0,148.8 C171.0,155.6 181.0,163.5 196.0,165.0 C211.0,166.5 232.7,159.0 240.0,157.8" stroke="#f7f5f2" stroke-width="6.8"/>
    <path d="M0.0,170.0 C11.7,168.0 45.0,156.4 70.0,158.0 C95.0,159.6 129.0,173.6 150.0,179.6 C171.0,185.6 181.0,192.7 196.0,194.0 C211.0,195.3 232.7,188.7 240.0,187.6" stroke="#f7f5f2" stroke-width="6.0" opacity="0.92"/>
  </g>
</svg>
