<svg xmlns="http://www.w3.org/2000/svg" viewBox="0 0 240 240" role="img" aria-label="Clwydian Academy seal — the Clwydian ridgeline read as a sweep of hair">
  <defs><clipPath id="sc"><circle cx="120" cy="120" r="108"/></clipPath></defs>
  <circle cx="120" cy="120" r="108" fill="#574463"/>
  <g clip-path="url(#sc)" fill="none" stroke-linecap="round">
    <path d="M4,112 C56,52 92,44 128,76 C160,104 192,96 236,108" stroke="#f7f5f2" stroke-width="6.8"/>
    <path d="M4,136 C56,80 92,72 128,104 C160,132 192,124 236,132" stroke="#c2a14d" stroke-width="6.8"/>
    <path d="M4,160 C56,108 92,100 128,132 C160,160 192,152 236,160" stroke="#f7f5f2" stroke-width="6.8"/>
    <path d="M4,184 C56,140 92,132 128,160 C160,188 192,180 236,184" stroke="#f7f5f2" stroke-width="6.8"/>
  </g>
  <circle cx="120" cy="120" r="97" fill="none" stroke="#f7f5f2" stroke-opacity=".35" stroke-width="2.4"/>
</svg>
